<svg width="96" height="96" viewBox="0 0 1 1" xmlns="http://www.w3.org/2000/svg"><path style="fill:#fff;stroke-width:.0292969;stroke-linecap:round" d="M.031.031H.97V.97H.03z"/><path style="vector-effect:none;fill:#000;fill-opacity:1;stroke:none;stroke-width:.000833334;stroke-linecap:butt;stroke-linejoin:miter;stroke-miterlimit:4;stroke-dasharray:none;stroke-dashoffset:0;stroke-opacity:1" d="M0 0v1h1V0zm.133.317h.15V.35H.15v.033h.117V.4h.016v.067H.267v.016h-.15V.45H.25V.417H.133V.4H.117V.333h.016zm.234 0h.066v.016H.45V.35h.017v.017h.016v.116H.45v-.05h-.1v.05H.317V.367h.016V.35H.35V.333h.017zm.15 0H.55v.016h.017V.35h.016v.017h.034V.35h.016V.333H.65V.317h.033v.166H.65v-.1H.633V.4H.617v.017H.583V.4H.567V.383H.55v.1H.517v-.15zm.2 0H.75v.016h.017V.35h.016v.017h.034V.35h.016V.333H.85V.317h.033v.166H.85v-.1H.833V.4H.817v.017H.783V.4H.767V.383H.75v.1H.717v-.15zM.383.35v.017H.367v.016H.35V.4h.1V.383H.433V.367H.417V.35H.4zM.117.517H.25v.016h.017V.55h.016v.1H.267v.017H.25v.016H.117v-.15zm.2 0H.35v.116h.017V.65H.45V.517h.033v.166H.35V.667H.333V.65H.317V.533zM.15.55v.1h.083V.633H.25V.567H.233V.55H.167zm.367.1H.55v.033H.517V.667z"/></svg>